<svg class="w-full h-full" viewBox="0 0 1600 800" preserveAspectRatio="xMidYMid slice" xmlns="http://www.w3.org/2000/svg">
    <path d="M734.543,4C734.543,4,770.723,9.175,787.94,9.063C804.086,8.958,834.841,4,834.841,4" stroke="#cd071e"
        stroke-width="1" fill="none" stroke-linecap="round" stroke-miterlimit="4"></path>
    <path
        d="M629.079,4C629.079,4,686.84,30.004,715.578,37.395C742.461,44.309,769.897,48.481,795.98,48.315C820.747,48.157,844.934,44.71,868.342,37.545C892.467,30.161,938.446,4,938.446,4"
        stroke="#cd071e" stroke-width="1" fill="none" stroke-linecap="round" stroke-miterlimit="4"></path>
    <path
        d="M412.457,796C412.457,796,402.075,777.327,402.566,767.677C403.102,757.151,409.393,743.933,417.691,735.354C427.068,725.659,443.208,719.317,458.291,714.678C475.122,709.501,493.57,707.548,514.573,707.562C541.282,707.58,578.164,712.41,605.577,719.192C629.384,725.082,656.291,732.863,670.387,743.434C679.709,750.426,688.325,759.215,688.503,767.677C688.691,776.686,669.132,796,669.132,796"
        stroke="#cd071e" stroke-width="1" fill="none" stroke-linecap="round" stroke-miterlimit="4"></path>
    <path
        d="M561.701,4C561.701,4,663.054,60.35,707.538,75.929C742.206,88.07,776.075,95.84,804.02,97.051C825.203,97.969,842.508,94.194,860.302,89.755C877.26,85.524,892.175,79.371,908.543,71.594C926.94,62.854,948.408,50.872,964.824,38.842C979.466,28.113,1003.156,4,1003.156,4"
        stroke="#cd071e" stroke-width="1" fill="none" stroke-linecap="round" stroke-miterlimit="4"></path>
    <path
        d="M1040.733,298.99C1046.003,305.182,1059.515,310.513,1073.31,315.152C1094.525,322.284,1129.879,329.775,1157.789,331.236C1184.823,332.651,1218.994,330.982,1238.191,324.502C1250.361,320.394,1264.143,313.625,1265.533,307.071C1266.635,301.874,1260.729,294.873,1254.271,290.079C1243.307,281.939,1220.574,276.455,1197.99,273.181C1165.636,268.491,1106.523,268.689,1077.387,273.635C1060.085,276.572,1040.382,281.213,1037.186,287.518C1035.488,290.868,1037.705,295.432,1040.733,298.99"
        stroke="#cd071e" stroke-width="1" fill="none" stroke-linecap="round" stroke-miterlimit="4"></path>
    <path
        d="M294.701,796C294.701,796,289.921,776.694,290.482,767.677C291.008,759.223,292.337,751.862,297.247,743.434C304.637,730.752,320.68,713.96,337.456,703.03C357.052,690.263,384.219,681.267,410.05,675.118C437.665,668.545,469.697,666.616,498.492,666.215C525.915,665.834,545.048,668.085,578.894,672.057C637.711,678.96,759.889,697.814,819.176,711.111C854.755,719.091,890.622,727.697,903.433,735.354C908.031,738.102,909.915,739.917,911.323,743.434C913.008,747.642,914.073,753.943,911.13,759.596C905.349,770.704,860.453,796,860.453,796"
        stroke="#cd071e" stroke-width="1" fill="none" stroke-linecap="round" stroke-miterlimit="4"></path>
    <path
        d="M499.952,4C499.952,4,590.573,56.245,626.686,80.808C655.371,100.319,682.98,120.238,701.133,137.374C713.376,148.93,719.157,155.9,728.769,169.697C742.95,190.053,757.619,229.074,773.921,250.505C786.766,267.391,798.691,278.304,814.786,290.909C833.467,305.54,858.206,319.736,880.826,331.313C902.888,342.605,922.174,350.612,948.744,359.793C984.505,372.151,1035.583,388.261,1077.387,395.17C1115.818,401.522,1149.929,403.611,1189.95,401.846C1236.134,399.81,1301.826,388.276,1338.491,379.798C1360.688,374.666,1375.309,370.417,1390.955,363.16C1405.046,356.625,1421.092,348.852,1428.744,339.394C1434.564,332.201,1437.719,323.214,1437.625,315.152C1437.53,307.053,1433.492,298.979,1428.096,290.909C1420.877,280.115,1407.169,267.76,1394.524,258.586C1381.481,249.123,1367.997,242.105,1350.754,235.305C1328.409,226.494,1303.596,220.399,1270.352,213.712C1217.865,203.154,1116.386,199.759,1064.707,185.859C1031.665,176.971,999.761,164.648,986.268,153.535C979.821,148.225,977.077,143.614,975.594,137.374C973.93,130.368,974.355,123.387,978.448,113.131C988.119,88.898,1060.091,4,1060.091,4"
        stroke="#cd071e" stroke-width="1" fill="none" stroke-linecap="round" stroke-miterlimit="4"></path>
    <path
        d="M186.232,796C186.232,796,179.179,776.787,178.842,767.677C178.534,759.317,179.664,751.06,183.289,743.434C187.409,734.765,195.404,726.703,203.959,719.192C214.067,710.316,224.912,703.291,241.255,694.949C268.161,681.216,314.365,661.359,353.769,651.625C394.61,641.535,430.916,637.15,482.412,636.529C559.559,635.599,682.222,660.466,771.859,663.433C849.335,665.998,942.619,655.802,988.945,657.679C1010.842,658.566,1023.097,658.53,1037.186,662.884C1049.404,666.66,1060.801,672.075,1069.347,680.12C1077.883,688.156,1085.029,699.587,1088.446,711.111C1092.047,723.254,1092.164,738.048,1089.427,751.515C1086.423,766.292,1069.347,795.842,1069.347,795.842"
        stroke="#cd071e" stroke-width="1" fill="none" stroke-linecap="round" stroke-miterlimit="4"></path>
    <path
        d="M434.171,4.032C434.171,4.032,500.247,38.267,527.345,56.566C550.431,72.156,571.776,88.662,587.982,105.051C601.152,118.369,609.447,128.6,619.556,145.455C633.475,168.663,641.531,209.427,658.945,234.343C674.882,257.146,692.885,272.369,717.519,290.909C750.479,315.715,795.985,340.045,843.838,363.636C902.369,392.493,994.302,432.072,1045.226,447.286C1074.82,456.127,1092.749,459.84,1117.588,460.973C1143.601,462.16,1163.823,458.675,1197.99,453.251C1259.71,443.453,1403.668,410.466,1455.264,395.96C1477.957,389.579,1489.318,386.741,1503.518,379.482C1516.314,372.941,1531.093,364.917,1537.313,355.556C1542.13,348.306,1543.68,339.793,1542.689,331.313C1541.496,321.115,1534.854,310.196,1527.031,298.99C1516.315,283.639,1496.727,264.595,1480.224,250.505C1464.668,237.224,1449.709,226.417,1431.156,216.186C1409.915,204.472,1389.031,195.219,1358.794,185.796C1311.878,171.174,1218.099,161.041,1173.869,147.035C1147.874,138.802,1126.313,130.352,1113.927,121.212C1106.861,115.998,1103.215,111.453,1100.144,105.051C1096.834,98.149,1095.166,91.104,1095.523,80.808C1096.164,62.336,1115.767,4,1115.767,4"
        stroke="#cd071e" stroke-width="1" fill="none" stroke-linecap="round" stroke-miterlimit="4"></path>
    <path
        d="M1172.985,796C1172.985,796,1175.526,735.491,1173.958,703.03C1172.222,667.12,1159.711,616.035,1161.803,589.899C1162.939,575.716,1165.938,567.184,1170.637,557.576C1175.106,548.441,1180.617,541.371,1188.8,533.333C1199.851,522.48,1215.883,510.847,1233.597,501.01C1255.607,488.788,1277.472,479.795,1312.51,468.687C1377.218,448.174,1596,403.738,1596,403.738"
        stroke="#cd071e" stroke-width="1" fill="none" stroke-linecap="round" stroke-miterlimit="4"></path>
    <path
        d="M1596,290.412C1596,290.412,1538.569,235.539,1511.558,214.95C1489.349,198.022,1469.232,184.837,1447.236,173.424C1426.299,162.561,1408.318,156.089,1382.915,147.437C1347.664,135.431,1286.071,123.54,1254.271,111.48C1234.492,103.979,1220.13,98.819,1207.794,88.889C1196.784,80.026,1187.897,69.515,1182.307,56.566C1175.956,41.852,1174.507,4,1174.507,4"
        stroke="#cd071e" stroke-width="1" fill="none" stroke-linecap="round" stroke-miterlimit="4"></path>
    <path
        d="M347.101,4C347.101,4,400.827,20.88,426.131,33.48C451.994,46.358,479.689,62.485,500.462,80.808C519.429,97.539,535.894,114.902,547.348,137.374C560.148,162.487,559.629,203.097,570.107,226.263C577.759,243.177,584.636,253.8,597.688,266.667C615.178,283.908,638.164,295.621,670.944,315.152C732.426,351.784,889.667,422.135,943.634,460.606C969.543,479.076,985.64,494.732,995.824,509.091C1002.03,517.841,1005.283,525.09,1006.407,533.333C1007.488,541.264,1006.482,549.986,1002.974,557.576C998.938,566.306,990.877,574.506,981.483,581.818C969.494,591.15,954.547,599.113,934.619,606.061C903.96,616.75,849.752,626.241,812.06,630.086C780.341,633.322,758.729,632.471,723.618,630.95C671.637,628.699,583.99,615.157,530.653,612.305C493.025,610.292,465.578,609.586,434.171,611.287C403.995,612.922,381.566,615.997,345.729,621.842C289.188,631.064,177.556,665.474,128.643,666.881C103.865,667.594,91.364,664.076,72.362,658.545C51.22,652.391,8.04,629.864,8.04,629.864"
        stroke="#cd071e" stroke-width="1" fill="none" stroke-linecap="round" stroke-miterlimit="4"></path>
    <path
        d="M4,9.767C4,9.767,212.299,10.445,273.367,17.972C305.381,21.919,322.666,26.313,345.729,33.763C368.171,41.012,390.848,50.573,410.05,61.722C427.641,71.936,444.872,84.495,457.187,96.97C467.336,107.251,475.184,118.013,480.712,129.293C485.784,139.642,488.159,148.25,490.084,161.616C493.068,182.328,484.599,222.146,490.403,242.424C494.382,256.329,501.031,265.155,510.378,274.747C521.422,286.083,533.043,291.35,554.774,303.805C607.801,334.197,783.075,409.256,837.689,444.444C862.266,460.28,875.613,469.941,887.306,484.848C897.082,497.311,905.408,513.32,906.474,525.253C907.274,534.195,904.501,542.031,899.905,549.495C894.381,558.466,883.757,567.09,872.907,573.737C860.432,581.381,844.675,586.595,828.141,590.984C808.886,596.094,793.67,599.215,763.819,600.778C696.592,604.297,541.06,581.257,434.171,585.435C332.289,589.417,199.623,622.926,136.683,622.708C107.404,622.606,93.884,619.203,72.362,614.195C49.666,608.914,4,591.113,4,591.113"
        stroke="#cd071e" stroke-width="1" fill="none" stroke-linecap="round" stroke-miterlimit="4"></path>
    <path
        d="M1240.415,796C1240.415,796,1234.29,752.182,1233.341,727.273C1232.217,697.758,1231.976,656.887,1235.902,630.303C1238.728,611.167,1242.34,596.735,1249.155,581.818C1255.858,567.145,1264.86,553.28,1276.224,541.414C1288.266,528.841,1303.131,518.543,1320.235,509.091C1340.419,497.937,1360.696,489.637,1390.955,481.153C1441.009,467.117,1596,445.845,1596,445.845"
        stroke="#cd071e" stroke-width="1" fill="none" stroke-linecap="round" stroke-miterlimit="4"></path>
    <path
        d="M1596,231.141C1596,231.141,1525.212,167.166,1479.397,140.491C1424.904,108.763,1321.933,83.113,1286.432,60.338C1270.663,50.222,1263.745,42.43,1256.184,32.323C1249.563,23.472,1242.121,4,1242.121,4"
        stroke="#cd071e" stroke-width="1" fill="none" stroke-linecap="round" stroke-miterlimit="4"></path>
    <path
        d="M4,29.728C4,29.728,185.156,33.432,241.206,40.751C272.504,44.838,291.462,49.193,313.568,56.421C333.463,62.926,353.202,71.636,368.358,80.808C380.588,88.21,390.535,95.532,398.978,105.051C407.297,114.429,415.146,126.144,418.799,137.374C422.177,147.759,422.454,156.607,421.354,169.697C419.59,190.682,398.505,228.571,401.015,250.505C402.869,266.699,411.522,279.794,421.767,290.909C432.778,302.855,446.048,308.598,466.332,318.594C503.945,337.131,585.29,360.566,635.176,382.13C676.389,399.945,715.729,418.326,745.719,436.364C768.149,449.854,788.552,461.56,801.5,476.768C811.994,489.093,821.625,505.755,821.855,517.172C822.021,525.431,817.22,532.64,812.06,538.73C806.345,545.477,798.938,550.399,787.94,554.935C769.476,562.548,742.488,567.892,707.538,570.453C643.648,575.134,526.49,555.531,434.171,558.312C338.961,561.18,206.556,588.359,144.724,588.7C115.592,588.861,102.58,586.722,80.402,582.663C55.84,578.169,4,561.652,4,561.652"
        stroke="#cd071e" stroke-width="1" fill="none" stroke-linecap="round" stroke-miterlimit="4"></path>
    <path
        d="M1296.06,796C1296.06,796,1285.148,757.144,1283.19,735.354C1280.954,710.471,1281.6,678.844,1285.603,654.545C1289.027,633.761,1294.804,614.703,1302.896,597.98C1310.269,582.742,1319.296,569.471,1330.815,557.576C1342.934,545.061,1358.372,534.26,1374.519,525.253C1391.625,515.71,1410.332,508.94,1431.156,502.574C1455.335,495.183,1484.3,489.411,1511.558,485.225C1539.234,480.976,1596,477.417,1596,477.417"
        stroke="#cd071e" stroke-width="1" fill="none" stroke-linecap="round" stroke-miterlimit="4"></path>
    <path
        d="M1596,171.592C1596,171.592,1544.719,121.381,1511.558,100.16C1472.834,75.38,1406.437,55.82,1374.874,36.412C1356.261,24.968,1333.639,4,1333.639,4"
        stroke="#cd071e" stroke-width="1" fill="none" stroke-linecap="round" stroke-miterlimit="4">
    </path>
    <path
        d="M4,51.143C4,51.143,153.44,56.938,201.005,63.749C228.491,67.684,246.271,71.951,265.327,78.169C281.441,83.427,296.186,89.198,308.555,96.97C319.53,103.866,330.131,112.318,336.661,121.212C342.168,128.714,345.895,136.609,347.124,145.455C348.491,155.284,346.016,165.06,342.859,177.778C337.99,197.396,317.775,230.906,315.868,250.505C314.629,263.24,317.216,273.222,321.131,282.828C324.855,291.966,329.509,298.869,338.167,307.071C352.059,320.229,373.407,333.085,402.856,347.475C457.091,373.977,595.62,411.694,645.803,436.364C670.083,448.299,685.055,456.263,697.014,468.687C706.406,478.444,716.364,492.256,715.732,501.01C715.262,507.512,709.176,513.013,702.952,517.172C694.61,522.746,684.813,524.849,667.337,527.273C621.989,533.563,501.028,522.214,418.09,527.088C334.863,531.979,229.103,554.228,168.844,556.672C134.727,558.056,115.402,557.249,88.442,553.691C60.466,549.998,4,534.329,4,534.329"
        stroke="#cd071e" stroke-width="1" fill="none" stroke-linecap="round" stroke-miterlimit="4">
    </path>
    <path
        d="M1348.091,796C1348.091,796,1333.724,762.126,1330.407,743.434C1326.826,723.25,1326.321,699.132,1328.682,678.788C1330.86,660.016,1335.617,641.927,1342.714,625.548C1349.585,609.689,1359.169,594.427,1370.132,581.818C1380.729,569.631,1393.261,559.523,1407.035,550.774C1421.493,541.589,1437.719,534.635,1455.276,528.505C1474.876,521.661,1497.087,516.504,1519.598,512.805C1543.825,508.823,1596,506.187,1596,506.187"
        stroke="#cd071e" stroke-width="1" fill="none" stroke-linecap="round" stroke-miterlimit="4">
    </path>
    <path
        d="M4,75.869C4,75.869,113.993,79.099,157.01,88.889C190.146,96.43,224.9,106.818,242.201,121.212C253.347,130.485,259.634,139.288,261.825,153.535C265.384,176.687,238.069,222.508,238.039,250.505C238.017,271.883,242.393,290.366,251.788,307.071C261.683,324.664,276.753,337.095,297.487,352.692C329.729,376.946,410.09,407.968,434.117,428.283C444.821,437.333,454.818,445.167,453.419,452.525C451.667,461.738,431.708,469.049,411.328,476.768C367.674,493.301,251.328,514.696,192.965,521.377C154.558,525.773,128.171,526.449,96.482,523.928C65.194,521.438,4,506.598,4,506.598"
        stroke="#cd071e" stroke-width="1" fill="none" stroke-linecap="round" stroke-miterlimit="4">
    </path>
    <path
        d="M1400.918,796C1400.918,796,1383.445,767.08,1378.573,751.515C1373.742,736.078,1371.489,719.177,1371.682,703.03C1371.875,686.854,1374.763,669.608,1379.76,654.545C1384.565,640.062,1391.847,626.285,1400.568,614.141C1409.247,602.055,1419.931,591.114,1431.912,581.818C1444.393,572.133,1458.451,564.268,1474.348,557.576C1492.506,549.931,1515.136,543.842,1535.678,540.079C1555.692,536.414,1596,534.975,1596,534.975"
        stroke="#cd071e" stroke-width="1" fill="none" stroke-linecap="round" stroke-miterlimit="4">
    </path>
    <path
        d="M4,108.414C4,108.414,79.694,114.377,104.888,121.212C120.913,125.56,133.02,130.991,142.725,137.374C150.053,142.193,155.595,146.992,159.735,153.535C164.051,160.359,166.425,167.17,167.69,177.778C169.945,196.686,160.016,236.339,161.235,258.586C162.104,274.434,164.235,285.888,168.974,298.99C173.995,312.869,180.962,325.017,191.307,339.394C205.57,359.215,238.563,387.056,250.639,404.04C257.402,413.553,262.707,420.847,263.681,428.283C264.438,434.059,262.929,439.524,259.844,444.444C256.016,450.55,249.314,455.575,240.02,460.606C224.138,469.203,193.589,478.583,168.844,483.274C143.144,488.147,115.502,489.843,88.442,488.622C60.57,487.365,4,475.291,4,475.291"
        stroke="#cd071e" stroke-width="1" fill="none" stroke-linecap="round" stroke-miterlimit="4">
    </path>
    <path
        d="M1459.874,796C1459.874,796,1442.636,778.548,1436.191,767.677C1429.203,755.89,1423.096,740.99,1420.337,727.273C1417.675,714.036,1417.341,700.154,1419.406,686.869C1421.529,673.208,1426.618,658.668,1433.311,646.465C1439.891,634.468,1448.893,623.601,1459.017,614.141C1469.503,604.344,1481.971,595.881,1495.477,588.981C1509.995,581.565,1527.089,575.728,1543.719,571.886C1560.581,567.99,1596,565.923,1596,565.923"
        stroke="#cd071e" stroke-width="1" fill="none" stroke-linecap="round" stroke-miterlimit="4">
    </path>
    <path
        d="M4,167.519C4,167.519,24.454,172.275,33.142,177.778C42.271,183.559,50.398,189.948,57.131,202.02C68.648,222.668,70.613,266.319,80.598,298.99C91.18,333.616,120.359,384.393,119.63,404.04C119.339,411.866,116.816,415.651,112.218,420.202C105.781,426.573,93.657,431.997,80.402,434.402C60.756,437.967,4,429.752,4,429.752"
        stroke="#cd071e" stroke-width="1" fill="none" stroke-linecap="round" stroke-miterlimit="4">
    </path>
    <path
        d="M1540.614,796C1540.614,796,1513.823,781.906,1503.518,772.687C1493.998,764.172,1485.74,754.004,1480.235,743.434C1475.007,733.398,1471.589,721.982,1470.655,711.111C1469.739,700.43,1470.97,689.213,1474.45,678.788C1478.181,667.611,1485.524,655.631,1493.28,646.465C1500.699,637.697,1509.377,630.825,1519.598,624.576C1531.149,617.515,1546.51,611.17,1559.799,607.406C1571.959,603.961,1596,601.993,1596,601.993"
        stroke="#cd071e" stroke-width="1" fill="none" stroke-linecap="round" stroke-miterlimit="4">
    </path>
    <path
        d="M1596,761.01C1596,761.01,1561.705,746.36,1552.46,735.354C1544.819,726.256,1539.889,713.711,1540.334,703.03C1540.786,692.159,1547.257,679.094,1555.633,670.707C1564.995,661.332,1596,651.533,1596,651.533"
        stroke="#cd071e" stroke-width="1" fill="none" stroke-linecap="round" stroke-miterlimit="4">
    </path>
</svg>
